# xmcd CD database file
#
# Track frame offsets:
#	150
#	18553
#	33639
#	56384
#	75449
#	94704
#	111723
#	128893
#	143824
#	161687
#	177790
#	197642
#
# Disc length: 2852 seconds
#
# Revision: 0
# Processed by: cddbd v1.5.1PL0 Copyright (c) Steve Scherf et al.
# Submitted via: CDex 1.50
#
DISCID=9f0b220c
DTITLE=Silje Nergaard - At First Light
DYEAR=2002
DGENRE=Jazz
TTITLE0=There's Always A First Time
TTITLE1=Let There Be Love
TTITLE2=Be Still My Heart
TTITLE3=So Sorry For  Your Love
TTITLE4=Now And Then
TTITLE5=Two Sleepy People
TTITLE6=Keep On Backing Loosers
TTITLE7=Blame It On The Sun
TTITLE8=At First Light
TTITLE9=There's Trouble Brewing
TTITLE10=Japanese Blue
TTITLE11=Lullaby To Erle
EXTD=YEAR: 2002
EXTT0=
EXTT1=
EXTT2=
EXTT3=
EXTT4=
EXTT5=
EXTT6=
EXTT7=
EXTT8=
EXTT9=
EXTT10=
EXTT11=
PLAYORDER=
